<svg xmlns="http://www.w3.org/2000/svg" xmlns:xlink="http://www.w3.org/1999/xlink" xmlns:lucid="lucid" width="840" height="620"><g transform="translate(-200 -200)" lucid:page-tab-id="0_0"><path d="M720 222c0-1.1.9-2 2-2h296c1.1 0 2 .9 2 2v576c0 1.1-.9 2-2 2H722c-1.1 0-2-.9-2-2z" fill="#f6f6f6"/><path d="M917.6 336.44l-16.15-27.76c-1.26-2.23-3.45-3.48-6.04-3.55h-32.16c-2.6.07-4.8 1.32-6.04 3.55l-16.16 27.7c-1.26 2.16-1.26 4.67 0 6.9l16.16 27.9c1.25 2.3 3.37 3.62 6.04 3.7h32.17c2.6-.08 4.8-1.4 6.05-3.7l16.16-27.7c1.27-2.3 1.27-4.8 0-7.04z" stroke="#000" stroke-opacity="0" fill="#4285f4"/><path d="M892.5 331.84l-22.17 2.02-4.3 4.26 3.7 3.6-3.65 6.33 27.07 26.8h2.28c2.62-.08 4.76-1.4 6.02-3.65l11.25-19.36z" stroke="#000" stroke-opacity="0" fill-opacity=".07"/><path d="M892 331.67h-25.4c-.4 0-.75.32-.75.73v5.2c0 .4.32.73.75.73H892c.42 0 .74-.33.74-.73v-5.2c0-.4-.32-.73-.75-.73m-3.94 4.85c-.83 0-1.5-.68-1.5-1.5 0-.84.67-1.5 1.5-1.5.86 0 1.53.66 1.53 1.5 0 .82-.68 1.5-1.54 1.5M892 341.65h-25.43c-.4.02-.73.36-.73.77v5.2c0 .4.33.73.76.73H892c.42 0 .74-.33.74-.74v-5.2c0-.42-.32-.74-.75-.75m-3.94 4.86c-.83 0-1.5-.67-1.5-1.5s.67-1.5 1.5-1.5c.86 0 1.53.67 1.53 1.5s-.68 1.5-1.54 1.5" stroke="#000" stroke-opacity="0" fill="#fff"/><use xlink:href="#a" transform="matrix(1,0,0,1,840.0944740624423,379.8735891205924) translate(16.339506172839513 14.222222222222221)"/><use xlink:href="#b" transform="matrix(1,0,0,1,840.0944740624423,379.8735891205924) translate(8.413580246913583 35.55555555555556)"/><path d="M917.52 491.32l-16.17-27.76c-1.25-2.23-3.45-3.5-6.04-3.56h-32.16c-2.58.07-4.78 1.33-6.04 3.56l-16.16 27.7c-1.25 2.15-1.25 4.66 0 6.9l16.16 27.9c1.26 2.3 3.38 3.62 6.04 3.7h32.17c2.6-.08 4.8-1.4 6.05-3.7l16.17-27.7c1.25-2.3 1.25-4.8 0-7.04z" stroke="#000" stroke-opacity="0" fill="#4285f4"/><path d="M901.36 526.04l10.75-18.46-22.68-22.5-10.2-2.7-9.12 3.37-3.55 9.1 2.82 10.17 24.97 24.7h1c2.6-.1 4.8-1.4 6.02-3.68z" stroke="#000" stroke-opacity="0" fill-opacity=".07"/><path d="M879.23 480.8c-7.85 0-14.2 6.3-14.2 14.06 0 7.76 6.35 14.06 14.2 14.06 7.84 0 14.2-6.3 14.2-14.06 0-7.76-6.36-14.06-14.2-14.06m0 24.74c-5.97 0-10.77-4.78-10.77-10.68 0-5.88 4.8-10.66 10.77-10.66 5.96 0 10.76 4.78 10.76 10.66 0 5.9-4.8 10.68-10.77 10.68" stroke="#000" stroke-opacity="0" fill="#fff"/><path d="M872.5 494.32v4.37c.67 1.15 1.5 2 2.67 2.7v-7.08zM877.8 490.62v11.8c.93.17 1.75.17 2.68 0v-11.8zM883.37 496.14v5.2c1.18-.75 2.02-1.63 2.68-2.84v-2.36zM889.44 503.53l-1.46 1.46c-.26.25-.26.66 0 .92l5.58 5.52c.26.26.68.26.94 0l1.47-1.46c.26-.25.26-.66 0-.93l-5.6-5.52c-.25-.26-.67-.26-.93 0" stroke="#000" stroke-opacity="0" fill="#fff"/><use xlink:href="#c" transform="matrix(1,0,0,1,840,534.7471782411849) translate(9.401234567901241 14.222222222222221)"/><use xlink:href="#d" transform="matrix(1,0,0,1,840,534.7471782411849) translate(15.820987654320994 35.55555555555556)"/><use xlink:href="#e" transform="matrix(1,0,0,1,840,534.7471782411849) translate(-3.364197530864196 56.888888888888886)"/><path d="M220 438.7c0-3.32 2.7-6 6-6h168c3.3 0 6 2.68 6 6v33c0 3.3-2.7 6-6 6H226c-3.3 0-6-2.7-6-6z" stroke="#000" stroke-opacity="0" stroke-width="3" fill="#fff" fill-opacity="0"/><use xlink:href="#f" transform="matrix(1,0,0,1,225,437.6959108794076) translate(21.83950617283952 20.78472222222222)"/><use xlink:href="#g" transform="matrix(1,0,0,1,225,437.6959108794076) translate(83.02469135802468 20.78472222222222)"/><path d="M763.4 248.14h1l3.16-3.2.2-1.34c-1.8-1.52-3.57-2.48-5.75-3.1-7.53-2.08-15.46 2.45-17.64 10.1.4-.16.8-.16 1.2-.07l6.34-1.06s.4-.52.6-.5c2.77-3.13 7.53-3.5 10.9-.83z" stroke="#000" stroke-opacity="0" stroke-width="1.66" fill="#ea4335"/><path d="M772.12 250.6c-.8-2.83-1.98-5.04-4.36-7l-4.36 4.48c1.98 1.6 2.97 3.8 2.97 6.33v.82c2.18 0 3.97 1.77 3.97 3.98 0 2.2-1.8 4-3.97 4h-8.13l-.8.8v4.8l.8.77h8.13c3.57.04 6.54-1.58 8.53-4.56 3.37-4.75 1.98-11.18-2.78-14.4z" stroke="#000" stroke-opacity="0" stroke-width="1.66" fill="#4285f4"/><path d="M750.3 269.54h7.94v-6.4h-7.93c-.58 0-1.18-.1-1.58-.34l-1.2.34-3.16 3.2-.4 1.12c2 1.43 3.97 2.08 6.35 2.08z" stroke="#000" stroke-opacity="0" stroke-width="1.66" fill="#34a853"/><path d="M750.3 248.82c-3.36 0-6.14 1.4-8.12 4.04-3.57 4.54-2.58 11.06 1.8 14.57l4.74-4.63c-1.98-.93-2.97-3.3-1.98-5.28.8-2.02 3.17-2.92 5.16-2.02 1 .44 1.58 1.1 1.98 2.02l4.76-4.63c-2.18-2.68-4.96-4.1-8.33-4.08z" stroke="#000" stroke-opacity="0" stroke-width="1.66" fill="#fbbc05"/><path d="M798.1 265.07c-2.98.03-5.56-.96-7.54-3.04-1.98-1.96-3.17-4.42-2.98-7.3-.2-2.86 1-5.35 2.98-7.3 1.98-2.1 4.56-3.1 7.53-3.1 2.57-.04 4.95.92 6.93 2.85l-1.98 2.05c-1.4-1.4-2.97-2.05-4.96-2.02-2.2-.02-3.97.72-5.36 2.24-1.4 1.46-2.18 3.23-2.18 5.32 0 2.05.8 3.82 2.18 5.25 2.97 2.9 7.53 2.96 10.5.13 1-1 1.4-2.1 1.6-3.48h-6.75v-2.86h9.5v1.73c.2 2.55-.6 4.76-2.37 6.62-1.98 2.02-4.36 3-7.14 2.92zm22-1.9c-2.58 2.55-6.74 2.55-9.52 0-1.2-1.3-1.98-2.92-1.98-4.78 0-1.84.8-3.46 1.98-4.76 2.78-2.55 6.94-2.55 9.52 0 1.4 1.3 1.98 2.92 1.98 4.75 0 1.85-.6 3.47-1.98 4.77zm-7.34-1.86c0 .07 0 .1.2.17 1.4 1.36 3.77 1.3 5.16-.16.8-.8 1-1.76 1-2.9 0-1.13-.2-2.1-1-2.9-.2-.03-.2-.06-.2-.12-1.4-1.4-3.77-1.34-5.16.12-.8.8-1.2 1.77-1.2 2.9 0 1.14.4 2.1 1.2 2.9zm22 1.87c-2.76 2.55-6.93 2.55-9.5 0-1.4-1.3-2-2.92-2-4.78 0-1.84.6-3.46 2-4.76 2.57-2.55 6.74-2.55 9.5 0 1.4 1.3 2 2.92 2 4.75 0 1.85-.6 3.47-2 4.77zm-7.52-1.86c.2.07.2.1.2.17 1.58 1.36 3.76 1.3 5.15-.16.78-.8 1.18-1.76 1.18-2.9 0-1.13-.4-2.1-1.2-2.9v-.12c-1.57-1.4-3.95-1.34-5.34.12-.8.8-1 1.77-1 2.9 0 1.14.2 2.1 1 2.9zm17.05 9.77c-1.4.03-2.6-.35-3.78-1.2-1-.76-1.58-1.6-2.18-2.75l2.58-1.06c.4.7.8 1.18 1.4 1.65.58.5 1.18.76 1.97.72.98.07 1.97-.28 2.57-1 .8-.86 1-1.82 1-2.9v-.97c-1 1.05-2.2 1.58-3.58 1.5-1.8.02-3.38-.66-4.57-1.94-1.2-1.3-1.98-2.88-1.8-4.7-.18-1.84.6-3.43 1.8-4.73 1.2-1.3 2.77-1.96 4.56-1.96.78 0 1.38.17 1.97.48.6.25 1.2.6 1.6 1.05v-1.05h2.76v11.93c.2 2-.4 3.73-1.78 5.23-1.2 1.2-2.78 1.8-4.56 1.74zm.2-8.6c.98 0 1.97-.38 2.56-1.13.8-.84 1-1.77 1-2.9 0-1.1-.2-2.07-1-2.9-.6-.75-1.58-1.16-2.57-1.13-1-.02-2 .4-2.6 1.13-.78.8-1.18 1.77-1.18 2.92 0 1.1.4 2.05 1.2 2.86.58.8 1.58 1.16 2.57 1.16zm11.1-17.4v19.6h-2.98v-19.6zm8.12 20c-1.98.06-3.57-.6-4.76-1.93-1.4-1.3-1.98-2.9-1.98-4.75 0-1.84.6-3.46 1.78-4.8 1.4-1.27 2.78-1.9 4.56-1.86.8-.03 1.6.13 2.18.44.8.28 1.2.62 1.8 1.12.38.43.78.83 1.18 1.36.2.44.4.8.6 1.3l.4.75-9.13 3.7c.6 1.3 1.78 2.1 3.37 2.03 1.4 0 2.58-.65 3.17-1.86l2.17 1.52c-.6.86-1.2 1.48-1.98 2.04-1.2.65-2.2.96-3.38.93zm-3.77-6.87l5.95-2.48c-.2-.44-.6-.78-1-1.03-.4-.3-.98-.38-1.58-.38-.8.03-1.78.37-2.38 1.06-.8.77-1.2 1.74-1 2.82zM884.74 265.07c-5.16.1-9.32-3.98-9.52-9.07v-.37c0-5.1 3.96-9.32 9.12-9.45h.4c2.57-.1 4.95.93 6.54 2.95l-1.6 1.6c-1.18-1.6-2.96-2.4-4.94-2.3-2-.07-3.57.6-4.96 1.98-1.6 1.44-2.18 3.2-2.18 5.23 0 2 .6 3.8 2.18 5.2 1.4 1.38 2.97 2.06 4.96 2 2.18.03 4.16-.87 5.55-2.6l1.57 1.6c-.8 1.06-1.78 1.8-2.97 2.37-1.4.62-2.78.9-4.16.87zM896.24 264.67h-2.38v-18.12h2.38zM900 253.76c2.58-2.5 6.74-2.5 9.12 0 1.4 1.34 2 2.9 1.8 4.72.2 1.8-.4 3.4-1.8 4.73-2.38 2.5-6.54 2.5-9.12 0-1.2-1.33-1.78-2.9-1.78-4.72 0-1.83.6-3.38 1.78-4.72zm1.8 8c0 .02 0 .08.2.14 1.57 1.46 3.95 1.4 5.54-.15.8-.94 1.2-2.02 1.2-3.27 0-1.24-.4-2.33-1.2-3.26-.2-.03-.2-.1-.2-.15-1.6-1.46-4.17-1.4-5.55.15-.8.93-1.2 2.02-1.2 3.26 0 1.25.4 2.33 1.2 3.23zM923.8 264.67h-2.2v-1.7c-.38.67-.98 1.17-1.77 1.54-.6.4-1.4.63-2.18.63-1.4.1-2.58-.4-3.57-1.43-.8-1.12-1.2-2.36-1.2-3.8v-7.6h2.4v7.18c0 2.33.98 3.48 2.96 3.48 1 .03 1.8-.38 2.38-1.12.6-.8 1-1.68 1-2.67v-6.87h2.17zM931.73 265.07c-1.6 0-2.98-.62-4.17-1.9-1.2-1.33-1.78-2.88-1.78-4.7 0-1.8.6-3.34 1.78-4.68 1.2-1.28 2.58-1.9 4.17-1.9 1-.03 1.78.15 2.57.6.6.36 1.2.83 1.6 1.5h.2l-.2-1.7v-5.75h2.37v18.12h-2.18v-1.7h-.2c-.4.67-1 1.14-1.6 1.5-.8.4-1.58.63-2.57.6zm.4-2.1c1.18 0 1.97-.42 2.77-1.22.8-.94 1.2-2.02 1.2-3.27 0-1.24-.4-2.33-1.2-3.26 0-.1-.2-.15-.2-.25-1.6-1.4-3.97-1.3-5.35.25-.8.93-1.2 2.02-1.2 3.26 0 1.22.4 2.3 1.2 3.23.8.85 1.58 1.3 2.77 1.26z" stroke="#000" stroke-opacity="0" stroke-width="1.66" fill="#5f6368"/><path d="M455.66 307.13c0-1.1.9-2 2-2h216c1.1 0 2 .9 2 2V485.4c0 1.1-.9 2-2 2h-216c-1.1 0-2-.9-2-2z" fill="#efebe9"/><use xlink:href="#h" transform="matrix(1,0,0,1,471.66453595006533,321.12641087940756) translate(0 12.57595486111111)"/><use xlink:href="#i" transform="matrix(1,0,0,1,471.66453595006533,321.12641087940756) translate(20.154622395833332 12.57595486111111)"/><use xlink:href="#j" transform="matrix(1,0,0,1,471.66453595006533,321.12641087940756) translate(117.01595052083331 12.57595486111111)"/><path d="M485.66 371.13c0-3.32 2.7-6 6-6h148c3.32 0 6 2.68 6 6v68c0 3.3-2.68 6-6 6h-148c-3.3 0-6-2.7-6-6z" stroke="#5e5e5e" stroke-width="3" fill="#fff"/><use xlink:href="#k" transform="matrix(1,0,0,1,490.66453595006533,370.1264108794076) translate(13.345679012345684 38.28472222222222)"/><use xlink:href="#l" transform="matrix(1,0,0,1,490.66453595006533,370.1264108794076) translate(80.4074074074074 38.28472222222222)"/><path d="M301.76 379.46v7.95h-7.9v-7.94zm12.98 0v7.95h-7.9v-7.94zm12.98 0v7.95h-7.9v-7.94zm-26.24 13.03v7.87h-7.96v-7.88zm12.98 0v7.87h-7.96v-7.88zm12.98 0v7.87h-7.96v-7.88zm-25.96 12.95v7.95h-7.96v-7.95zm12.98 0v7.95h-7.96v-7.95zm12.98 0v7.95h-7.96v-7.95zm-39.2-30.74v60.78l13.1.07v-15.3h18.2v15.3h13.2V374.7z" stroke="#000" stroke-opacity="0" stroke-width="1.67" fill-opacity="0"/><path d="M303.54 435.55h13.88V422.4h-13.88z" stroke="#000" stroke-opacity="0" stroke-width="1.67" fill-opacity="0"/><path d="M332.73 374.7v60.85h-13.18v-15.3h-18.2v15.3l-13.12-.07V374.7zm-15.3 47.7v13.15h-13.9V422.4zm-31.33-49.84v63h-9.34c-.6 0-1.1.44-1.1 1.03 0 .64.5 1.1 1.1 1.1h66.48c.6 0 1.1-.46 1.1-1.1 0-.6-.5-1.05-1.1-1.05h-8.38v-63z" stroke="#000" stroke-opacity="0" stroke-width="1.67" fill="#434445"/><path d="M293.86 387.4h7.9v-7.94h-7.9zM306.84 387.4h7.9v-7.94h-7.9zM319.82 387.4h7.9v-7.94h-7.9zM293.52 400.37h7.96v-7.88h-7.96zM306.5 400.37h7.96v-7.88h-7.96zM319.48 400.37h7.96v-7.88h-7.96zM293.52 413.4h7.96v-7.95h-7.96zM306.5 413.4h7.96v-7.95h-7.96zM319.48 413.4h7.96v-7.95h-7.96z" stroke="#000" stroke-opacity="0" stroke-width="1.67" fill="#434445"/><path d="M370.8 406.13h-34.94v-2h34.94zm94.86 0h-54.2v-2h54.2z" fill="#5e5e5e"/><path d="M335.88 406.13h-1.02v-2h1.02zM480.93 405.13l-14.27 4.63v-9.27z" fill="#5e5e5e"/><path d="M484.16 405.13l-18.5 6v-12.02zm-16.5 3.26l10.03-3.27-10.04-3.26z" fill="#5e5e5e"/><use xlink:href="#m" transform="matrix(1,0,0,1,370.79786928339854,397.1264108794076) translate(0 10.666666666666668)"/><path d="M917.6 671.32l-16.15-27.76c-1.26-2.23-3.45-3.5-6.04-3.56h-32.16c-2.6.07-4.8 1.33-6.04 3.56l-16.16 27.7c-1.26 2.15-1.26 4.66 0 6.9l16.16 27.9c1.25 2.3 3.37 3.62 6.04 3.7h32.17c2.6-.08 4.8-1.4 6.05-3.7l16.16-27.7c1.27-2.3 1.27-4.8 0-7.04z" stroke="#000" stroke-opacity="0" fill="#4285f4"/><path d="M901.46 706.04l10.75-18.46-22.68-22.5-10.2-2.7-9.12 3.37-3.56 9.1 2.83 10.17 24.97 24.7h1c2.6-.1 4.8-1.4 6.02-3.68z" stroke="#000" stroke-opacity="0" fill-opacity=".07"/><path d="M879.32 660.8c-7.84 0-14.2 6.3-14.2 14.06 0 7.76 6.36 14.06 14.2 14.06 7.84 0 14.2-6.3 14.2-14.06 0-7.76-6.36-14.06-14.2-14.06m0 24.74c-5.97 0-10.77-4.78-10.77-10.68 0-5.88 4.8-10.66 10.77-10.66 5.96 0 10.77 4.78 10.77 10.66 0 5.9-4.82 10.68-10.78 10.68" stroke="#000" stroke-opacity="0" fill="#fff"/><path d="M872.58 674.32v4.37c.7 1.15 1.52 2 2.68 2.7v-7.08zM877.9 670.62v11.8c.92.17 1.74.17 2.68 0v-11.8zM883.47 676.14v5.2c1.17-.75 2-1.63 2.68-2.84v-2.36zM889.54 683.53l-1.47 1.46c-.26.25-.26.66 0 .92l5.58 5.52c.26.26.68.26.95 0l1.46-1.46c.26-.25.26-.66 0-.93l-5.58-5.52c-.26-.26-.68-.26-.94 0" stroke="#000" stroke-opacity="0" fill="#fff"/><use xlink:href="#n" transform="matrix(1,0,0,1,840.094474062442,714.7471782411849) translate(20.75925925925926 14.222222222222221)"/><use xlink:href="#o" transform="matrix(1,0,0,1,840.094474062442,714.7471782411849) translate(-3.9074074074074048 35.55555555555556)"/><use xlink:href="#p" transform="matrix(1,0,0,1,840.094474062442,714.7471782411849) translate(-3.364197530864196 56.888888888888886)"/><use xlink:href="#q" transform="matrix(1,0,0,1,840.094474062442,714.7471782411849) translate(39.5 78.22222222222223)"/><path d="M769.17 341H749.8l-2.66.7-1.77 1.8-.72 2.63v53.13l-.92 3.4-2.53 2.54-3.4.93h-89.64v-2h89.36l2.64-.72 1.78-1.76.7-2.65v-53.13l.94-3.42 2.53-2.53 3.42-.92h19.65zm52.47 0h-18.4v-2h18.4z" fill="#5e5e5e"/><path d="M648.2 406.13h-1.04v-2h1.03zM836.9 340l-14.26 4.64v-9.28z" fill="#5e5e5e"/><path d="M840.14 340l-18.5 6v-12zm-16.5 3.26l10.03-3.26-10.03-3.26z" fill="#5e5e5e"/><use xlink:href="#r" transform="matrix(1,0,0,1,769.1710284458183,332) translate(0 10.666666666666668)"/><path d="M959.5 488.27l-.93 3.4-2.53 2.54-3.42.94H936.9v-2h15.46l2.64-.72 1.78-1.77.7-2.65v-49.96h2zm-3.46-148.35l2.53 2.53.92 3.42v76.17h-2v-75.9l-.72-2.65-1.78-1.8-2.64-.7H919.5v-2h33.12z" fill="#5e5e5e"/><path d="M919.52 341h-1.1l.1-1.55-.1-.45h1.1zM935.9 498.77l-14.27-4.63 14.27-4.64z" fill="#5e5e5e"/><path d="M936.9 500.15l-18.5-6 18.5-6.02zm-12.03-6l10.03 3.25v-6.52z" fill="#5e5e5e"/><use xlink:href="#s" transform="matrix(1,0,0,1,932.9546730286245,422.03718522222397) translate(0 10.666666666666668)"/><use xlink:href="#t" transform="matrix(1,0,0,1,932.9546730286245,422.03718522222397) translate(33.333333333333336 10.666666666666668)"/><path d="M801.05 668.74l.7 2.64 1.8 1.78 2.63.7h15.46v2h-15.72l-3.42-.9-2.53-2.54-.92-3.4v-68.1h2zm38-172.87h-32.87l-2.64.72-1.78 1.76-.7 2.65v67.92h-2v-68.18l.9-3.4 2.54-2.54 3.42-.93h33.13z" fill="#5e5e5e"/><path d="M840.02 495.23l.16.64h-1.16v-2h1.1zM836.9 674.87l-14.26 4.64v-9.26z" fill="#5e5e5e"/><path d="M840.14 674.87l-18.5 6.02v-12.04zm-16.5 3.26l10.03-3.26-10.03-3.26z" fill="#5e5e5e"/><g><use xlink:href="#u" transform="matrix(1,0,0,1,769.1970968449748,568.9208261518135) translate(0 10.666666666666668)"/><use xlink:href="#v" transform="matrix(1,0,0,1,769.1970968449748,568.9208261518135) translate(0 26.666666666666668)"/><use xlink:href="#w" transform="matrix(1,0,0,1,769.1970968449748,568.9208261518135) translate(35.518518518518526 26.666666666666668)"/></g><path d="M853.85 429l3.4.92 2.54 2.53.9 3.42v6.66h-2v-6.4l-.7-2.64-1.78-1.8-2.64-.7h-33.16v-2zm-113.77-21.42l.92 3.4v12.9l.7 2.63 1.8 1.8 2.63.7h31.4v2h-31.66l-3.42-.92-2.53-2.53-.92-3.42v-12.87l-.7-2.64-1.8-1.78-2.63-.7h-85.7v-2h85.96l3.42.9z" fill="#5e5e5e"/><path d="M648.2 406.13h-1.04v-2h1.03zM859.7 457.8l-4.62-14.27h9.27z" fill="#5e5e5e"/><path d="M859.7 461.04l-6-18.5h12.03zm-3.25-16.5l3.26 10.02 3.27-10.03z" fill="#5e5e5e"/><g><use xlink:href="#x" transform="matrix(1,0,0,1,777.5325256050255,422) translate(0 10.666666666666668)"/></g><defs><path fill="#333" d="M212-179c-10-28-35-45-73-45-59 0-87 40-87 99 0 60 29 101 89 101 43 0 62-24 78-52l27 14C228-24 195 4 139 4 59 4 22-46 18-125c-6-104 99-153 187-111 19 9 31 26 39 46" id="y"/><path fill="#333" d="M24 0v-261h32V0H24" id="z"/><path fill="#333" d="M100-194c62-1 85 37 85 99 1 63-27 99-86 99S16-35 15-95c0-66 28-99 85-99zM99-20c44 1 53-31 53-75 0-43-8-75-51-75s-53 32-53 75 10 74 51 75" id="A"/><path fill="#333" d="M84 4C-5 8 30-112 23-190h32v120c0 31 7 50 39 49 72-2 45-101 50-169h31l1 190h-30c-1-10 1-25-2-33-11 22-28 36-60 37" id="B"/><path fill="#333" d="M85-194c31 0 48 13 60 33l-1-100h32l1 261h-30c-2-10 0-23-3-31C134-8 116 4 85 4 32 4 16-35 15-94c0-66 23-100 70-100zm9 24c-40 0-46 34-46 75 0 40 6 74 45 74 42 0 51-32 51-76 0-42-9-74-50-73" id="C"/><g id="a"><use transform="matrix(0.049382716049382706,0,0,0.049382716049382706,0,0)" xlink:href="#y"/><use transform="matrix(0.049382716049382706,0,0,0.049382716049382706,12.790123456790122,0)" xlink:href="#z"/><use transform="matrix(0.049382716049382706,0,0,0.049382716049382706,16.691358024691354,0)" xlink:href="#A"/><use transform="matrix(0.049382716049382706,0,0,0.049382716049382706,26.567901234567895,0)" xlink:href="#B"/><use transform="matrix(0.049382716049382706,0,0,0.049382716049382706,36.444444444444436,0)" xlink:href="#C"/></g><path fill="#333" d="M185-189c-5-48-123-54-124 2 14 75 158 14 163 119 3 78-121 87-175 55-17-10-28-26-33-46l33-7c5 56 141 63 141-1 0-78-155-14-162-118-5-82 145-84 179-34 5 7 8 16 11 25" id="D"/><path fill="#333" d="M59-47c-2 24 18 29 38 22v24C64 9 27 4 27-40v-127H5v-23h24l9-43h21v43h35v23H59v120" id="E"/><path fill="#333" d="M114-163C36-179 61-72 57 0H25l-1-190h30c1 12-1 29 2 39 6-27 23-49 58-41v29" id="F"/><path fill="#333" d="M141-36C126-15 110 5 73 4 37 3 15-17 15-53c-1-64 63-63 125-63 3-35-9-54-41-54-24 1-41 7-42 31l-33-3c5-37 33-52 76-52 45 0 72 20 72 64v82c-1 20 7 32 28 27v20c-31 9-61-2-59-35zM48-53c0 20 12 33 32 33 41-3 63-29 60-74-43 2-92-5-92 41" id="G"/><path fill="#333" d="M177-190C167-65 218 103 67 71c-23-6-38-20-44-43l32-5c15 47 100 32 89-28v-30C133-14 115 1 83 1 29 1 15-40 15-95c0-56 16-97 71-98 29-1 48 16 59 35 1-10 0-23 2-32h30zM94-22c36 0 50-32 50-73 0-42-14-75-50-75-39 0-46 34-46 75s6 73 46 73" id="H"/><path fill="#333" d="M100-194c63 0 86 42 84 106H49c0 40 14 67 53 68 26 1 43-12 49-29l28 8c-11 28-37 45-77 45C44 4 14-33 15-96c1-61 26-98 85-98zm52 81c6-60-76-77-97-28-3 7-6 17-6 28h103" id="I"/><g id="b"><use transform="matrix(0.049382716049382706,0,0,0.049382716049382706,0,0)" xlink:href="#D"/><use transform="matrix(0.049382716049382706,0,0,0.049382716049382706,11.85185185185185,0)" xlink:href="#E"/><use transform="matrix(0.049382716049382706,0,0,0.049382716049382706,16.79012345679012,0)" xlink:href="#A"/><use transform="matrix(0.049382716049382706,0,0,0.049382716049382706,26.66666666666666,0)" xlink:href="#F"/><use transform="matrix(0.049382716049382706,0,0,0.049382716049382706,32.5432098765432,0)" xlink:href="#G"/><use transform="matrix(0.049382716049382706,0,0,0.049382716049382706,42.419753086419746,0)" xlink:href="#H"/><use transform="matrix(0.049382716049382706,0,0,0.049382716049382706,52.29629629629628,0)" xlink:href="#I"/></g><path fill="#333" d="M24-231v-30h32v30H24zM24 0v-190h32V0H24" id="J"/><path fill="#333" d="M117-194c89-4 53 116 60 194h-32v-121c0-31-8-49-39-48C34-167 62-67 57 0H25l-1-190h30c1 10-1 24 2 32 11-22 29-35 61-36" id="K"/><g id="c"><use transform="matrix(0.049382716049382706,0,0,0.049382716049382706,0,0)" xlink:href="#D"/><use transform="matrix(0.049382716049382706,0,0,0.049382716049382706,11.85185185185185,0)" xlink:href="#E"/><use transform="matrix(0.049382716049382706,0,0,0.049382716049382706,16.79012345679012,0)" xlink:href="#G"/><use transform="matrix(0.049382716049382706,0,0,0.049382716049382706,26.66666666666666,0)" xlink:href="#H"/><use transform="matrix(0.049382716049382706,0,0,0.049382716049382706,36.5432098765432,0)" xlink:href="#J"/><use transform="matrix(0.049382716049382706,0,0,0.049382716049382706,40.444444444444436,0)" xlink:href="#K"/><use transform="matrix(0.049382716049382706,0,0,0.049382716049382706,50.32098765432097,0)" xlink:href="#H"/></g><path fill="#333" d="M115-194c53 0 69 39 70 98 0 66-23 100-70 100C84 3 66-7 56-30L54 0H23l1-261h32v101c10-23 28-34 59-34zm-8 174c40 0 45-34 45-75 0-40-5-75-45-74-42 0-51 32-51 76 0 43 10 73 51 73" id="L"/><path fill="#333" d="M135-143c-3-34-86-38-87 0 15 53 115 12 119 90S17 21 10-45l28-5c4 36 97 45 98 0-10-56-113-15-118-90-4-57 82-63 122-42 12 7 21 19 24 35" id="M"/><g id="d"><use transform="matrix(0.049382716049382706,0,0,0.049382716049382706,0,0)" xlink:href="#E"/><use transform="matrix(0.049382716049382706,0,0,0.049382716049382706,4.93827160493827,0)" xlink:href="#G"/><use transform="matrix(0.049382716049382706,0,0,0.049382716049382706,14.814814814814811,0)" xlink:href="#L"/><use transform="matrix(0.049382716049382706,0,0,0.049382716049382706,24.691358024691354,0)" xlink:href="#z"/><use transform="matrix(0.049382716049382706,0,0,0.049382716049382706,28.592592592592588,0)" xlink:href="#I"/><use transform="matrix(0.049382716049382706,0,0,0.049382716049382706,38.469135802469125,0)" xlink:href="#M"/></g><path fill="#333" d="M87 75C49 33 22-17 22-94c0-76 28-126 65-167h31c-38 41-64 92-64 168S80 34 118 75H87" id="N"/><path fill="#333" d="M160-131c35 5 61 23 61 61C221 17 115-2 30 0v-248c76 3 177-17 177 60 0 33-19 50-47 57zm-97-11c50-1 110 9 110-42 0-47-63-36-110-37v79zm0 115c55-2 124 14 124-45 0-56-70-42-124-44v89" id="O"/><path fill="#333" d="M140-251c81 0 123 46 123 126C263-53 228-8 163 1c7 30 30 48 69 40v23c-55 16-95-15-103-61C56-3 17-48 17-125c0-80 42-126 123-126zm0 227c63 0 89-41 89-101s-29-99-89-99c-61 0-89 39-89 99S79-25 140-24" id="P"/><path fill="#333" d="M179-190L93 31C79 59 56 82 12 73V49c39 6 53-20 64-50L1-190h34L92-34l54-156h33" id="Q"/><path fill="#333" d="M33-261c38 41 65 92 65 168S71 34 33 75H2C39 34 66-17 66-93S39-220 2-261h31" id="R"/><g id="e"><use transform="matrix(0.049382716049382706,0,0,0.049382716049382706,0,0)" xlink:href="#N"/><use transform="matrix(0.049382716049382706,0,0,0.049382716049382706,5.876543209876542,0)" xlink:href="#O"/><use transform="matrix(0.049382716049382706,0,0,0.049382716049382706,17.728395061728392,0)" xlink:href="#J"/><use transform="matrix(0.049382716049382706,0,0,0.049382716049382706,21.629629629629626,0)" xlink:href="#H"/><use transform="matrix(0.049382716049382706,0,0,0.049382716049382706,31.506172839506167,0)" xlink:href="#P"/><use transform="matrix(0.049382716049382706,0,0,0.049382716049382706,45.33333333333333,0)" xlink:href="#B"/><use transform="matrix(0.049382716049382706,0,0,0.049382716049382706,55.20987654320988,0)" xlink:href="#I"/><use transform="matrix(0.049382716049382706,0,0,0.049382716049382706,65.08641975308642,0)" xlink:href="#F"/><use transform="matrix(0.049382716049382706,0,0,0.049382716049382706,70.96296296296296,0)" xlink:href="#Q"/><use transform="matrix(0.049382716049382706,0,0,0.049382716049382706,79.85185185185185,0)" xlink:href="#R"/></g><path fill="#333" d="M96-169c-40 0-48 33-48 73s9 75 48 75c24 0 41-14 43-38l32 2c-6 37-31 61-74 61-59 0-76-41-82-99-10-93 101-131 147-64 4 7 5 14 7 22l-32 3c-4-21-16-35-41-35" id="S"/><g id="f"><use transform="matrix(0.049382716049382706,0,0,0.049382716049382706,0,0)" xlink:href="#D"/><use transform="matrix(0.049382716049382706,0,0,0.049382716049382706,11.85185185185185,0)" xlink:href="#A"/><use transform="matrix(0.049382716049382706,0,0,0.049382716049382706,21.728395061728392,0)" xlink:href="#B"/><use transform="matrix(0.049382716049382706,0,0,0.049382716049382706,31.604938271604933,0)" xlink:href="#F"/><use transform="matrix(0.049382716049382706,0,0,0.049382716049382706,37.481481481481474,0)" xlink:href="#S"/><use transform="matrix(0.049382716049382706,0,0,0.049382716049382706,46.37037037037036,0)" xlink:href="#I"/></g><path fill="#333" d="M210-169c-67 3-38 105-44 169h-31v-121c0-29-5-50-35-48C34-165 62-65 56 0H25l-1-190h30c1 10-1 24 2 32 10-44 99-50 107 0 11-21 27-35 58-36 85-2 47 119 55 194h-31v-121c0-29-5-49-35-48" id="T"/><g id="g"><use transform="matrix(0.049382716049382706,0,0,0.049382716049382706,0,0)" xlink:href="#M"/><use transform="matrix(0.049382716049382706,0,0,0.049382716049382706,8.888888888888888,0)" xlink:href="#Q"/><use transform="matrix(0.049382716049382706,0,0,0.049382716049382706,17.777777777777775,0)" xlink:href="#M"/><use transform="matrix(0.049382716049382706,0,0,0.049382716049382706,26.666666666666668,0)" xlink:href="#E"/><use transform="matrix(0.049382716049382706,0,0,0.049382716049382706,31.604938271604937,0)" xlink:href="#I"/><use transform="matrix(0.049382716049382706,0,0,0.049382716049382706,41.48148148148148,0)" xlink:href="#T"/><use transform="matrix(0.049382716049382706,0,0,0.049382716049382706,56.24691358024691,0)" xlink:href="#M"/></g><path d="M703-1476c426 0 599 333 586 795-11 408-187 701-584 701-422 0-587-333-587-793 0-282 106-507 280-617 89-56 190-86 305-86zm2 1333c312 0 393-279 393-632 0-308-116-536-395-536-269 0-394 232-394 523v107c-4 298 123 538 396 538" id="U"/><path d="M589-945c-131 0-219 81-264 174V0H140v-1082h175l6 136c83-104 191-156 324-156 229 0 346 129 346 387V0H806v-716c-2-153-65-229-217-229" id="V"/><g id="h"><use transform="matrix(0.006618923611111111,0,0,0.006618923611111111,0,0)" xlink:href="#U"/><use transform="matrix(0.006618923611111111,0,0,0.006618923611111111,9.319444444444445,0)" xlink:href="#V"/></g><path d="M1216-1011c-1 297-202 441-512 441H361V0H169v-1456h537c297-6 510 164 510 445zm-192 2c1-178-126-288-307-289H361v571h345c196 1 318-92 318-282" id="W"/><path d="M663-916c-163-27-288 18-338 148V0H140v-1082h180l3 125c61-97 147-145 258-145 36 0 63 5 82 14v172" id="X"/><path d="M599-131c141 0 220-65 285-146l113 88C906-50 770 20 589 20 281 21 93-214 93-545c0-223 93-397 233-485 74-48 154-72 240-72 300 2 449 218 445 537v77H278c0 197 129 357 321 357zm227-509c-3-180-88-310-260-310-170 0-264 140-282 310h542" id="Y"/><path d="M1240-945c-141 0-250 95-250 227V0H804v-709c0-157-77-236-231-236-121 0-204 52-249 155V0H139v-1082h175l5 120c79-93 186-140 321-140 151 0 254 58 309 174 69-98 181-174 345-174 237 0 362 126 362 377V0h-185v-714c-2-159-67-231-231-231" id="Z"/><path d="M341 0H156v-1082h185V0zm-91-1264c-68 0-108-42-109-105 0-62 41-107 109-107s110 44 110 107-42 105-110 105" id="aa"/><path d="M538-131c121 0 232-49 232-156 0-50-20-88-56-117-73-60-334-92-420-143-92-55-162-110-162-238 0-190 192-317 400-317 223 0 414 129 413 338H759c0-108-110-186-227-186-119 0-215 53-215 159 0 45 18 78 53 101 76 52 331 90 416 139 98 57 169 115 169 251C955-92 760 20 538 20c-176 0-314-68-386-174-38-55-57-115-57-179h185c6 129 116 202 258 202" id="ab"/><path d="M177 125H18l608-1581h158" id="ac"/><path d="M584 20C278 26 81-227 91-551c10-320 175-545 491-551 308-5 503 247 494 573-9 322-175 543-492 549zm-2-970c-208 0-305 185-305 421 0 216 106 398 307 398 211 0 307-186 307-420 0-214-109-399-309-399" id="ad"/><path d="M456 20C285 20 205-92 206-268v-671H9v-143h197v-262h185v262h202v143H391v671c-9 125 92 149 207 118V0c-49 13-96 20-142 20" id="ae"/><path d="M589-945c-131 0-219 81-264 174V0H140v-1536h185v585c82-101 189-151 320-151 229 0 346 129 346 387V0H806v-716c-2-153-65-229-217-229" id="af"/><g id="i"><use transform="matrix(0.006618923611111111,0,0,0.006618923611111111,0,0)" xlink:href="#W"/><use transform="matrix(0.006618923611111111,0,0,0.006618923611111111,8.551649305555555,0)" xlink:href="#X"/><use transform="matrix(0.006618923611111111,0,0,0.006618923611111111,13.012803819444445,0)" xlink:href="#Y"/><use transform="matrix(0.006618923611111111,0,0,0.006618923611111111,20.1943359375,0)" xlink:href="#Z"/><use transform="matrix(0.006618923611111111,0,0,0.006618923611111111,32.07530381944444,0)" xlink:href="#aa"/><use transform="matrix(0.006618923611111111,0,0,0.006618923611111111,35.364908854166664,0)" xlink:href="#ab"/><use transform="matrix(0.006618923611111111,0,0,0.006618923611111111,42.3544921875,0)" xlink:href="#Y"/><use transform="matrix(0.006618923611111111,0,0,0.006618923611111111,49.53602430555556,0)" xlink:href="#ab"/><use transform="matrix(0.006618923611111111,0,0,0.006618923611111111,56.525607638888886,0)" xlink:href="#ac"/><use transform="matrix(0.006618923611111111,0,0,0.006618923611111111,62.111979166666664,0)" xlink:href="#ad"/><use transform="matrix(0.006618923611111111,0,0,0.006618923611111111,69.84288194444444,0)" xlink:href="#ae"/><use transform="matrix(0.006618923611111111,0,0,0.006618923611111111,74.27094184027777,0)" xlink:href="#af"/><use transform="matrix(0.006618923611111111,0,0,0.006618923611111111,81.7370876736111,0)" xlink:href="#Y"/><use transform="matrix(0.006618923611111111,0,0,0.006618923611111111,88.91861979166666,0)" xlink:href="#X"/></g><path d="M277-555c0 244 77 420 297 424 127 2 249-93 255-210h175C980-127 805 20 574 20 258 20 81-222 92-562c11-319 164-533 481-540 237-5 426 165 431 392H829c-7-133-115-242-256-240-209 4-296 166-296 395" id="ag"/><path d="M341 0H156v-1536h185V0" id="ah"/><path d="M491 20c-241-1-355-148-355-398v-704h185v699c0 164 67 246 200 246 141 0 235-53 282-158v-787h185V0H812l-4-107C736-22 630 20 491 20" id="ai"/><path d="M520 20C244 20 95-247 95-550c0-298 151-550 427-552 127 0 227 43 301 130v-564h185V0H838l-9-116C755-25 652 20 520 20zm48-965c-210 0-288 177-288 416 0 218 87 392 286 392 117 0 203-53 257-158v-497c-55-102-140-153-255-153" id="aj"/><g id="j"><use transform="matrix(0.006618923611111111,0,0,0.006618923611111111,0,0)" xlink:href="#ag"/><use transform="matrix(0.006618923611111111,0,0,0.006618923611111111,7.095486111111111,0)" xlink:href="#ah"/><use transform="matrix(0.006618923611111111,0,0,0.006618923611111111,10.385091145833332,0)" xlink:href="#ad"/><use transform="matrix(0.006618923611111111,0,0,0.006618923611111111,18.11599392361111,0)" xlink:href="#ai"/><use transform="matrix(0.006618923611111111,0,0,0.006618923611111111,25.588758680555557,0)" xlink:href="#aj"/></g><path fill="#333" d="M30 0v-248h187v28H63v79h144v27H63v87h162V0H30" id="ak"/><path fill="#333" d="M141 0L90-78 38 0H4l68-98-65-92h35l48 74 47-74h35l-64 92 68 98h-35" id="al"/><g id="k"><use transform="matrix(0.049382716049382706,0,0,0.049382716049382706,0,0)" xlink:href="#ak"/><use transform="matrix(0.049382716049382706,0,0,0.049382716049382706,11.85185185185185,0)" xlink:href="#al"/><use transform="matrix(0.049382716049382706,0,0,0.049382716049382706,20.740740740740737,0)" xlink:href="#J"/><use transform="matrix(0.049382716049382706,0,0,0.049382716049382706,24.64197530864197,0)" xlink:href="#M"/><use transform="matrix(0.049382716049382706,0,0,0.049382716049382706,33.53086419753086,0)" xlink:href="#E"/><use transform="matrix(0.049382716049382706,0,0,0.049382716049382706,38.46913580246913,0)" xlink:href="#J"/><use transform="matrix(0.049382716049382706,0,0,0.049382716049382706,42.37037037037037,0)" xlink:href="#K"/><use transform="matrix(0.049382716049382706,0,0,0.049382716049382706,52.24691358024691,0)" xlink:href="#H"/></g><g id="l"><use transform="matrix(0.049382716049382706,0,0,0.049382716049382706,0,0)" xlink:href="#M"/><use transform="matrix(0.049382716049382706,0,0,0.049382716049382706,8.888888888888888,0)" xlink:href="#Q"/><use transform="matrix(0.049382716049382706,0,0,0.049382716049382706,17.777777777777775,0)" xlink:href="#M"/><use transform="matrix(0.049382716049382706,0,0,0.049382716049382706,26.666666666666668,0)" xlink:href="#E"/><use transform="matrix(0.049382716049382706,0,0,0.049382716049382706,31.604938271604937,0)" xlink:href="#I"/><use transform="matrix(0.049382716049382706,0,0,0.049382716049382706,41.48148148148148,0)" xlink:href="#T"/></g><path fill="#333" d="M30-248c87 1 191-15 191 75 0 78-77 80-158 76V0H30v-248zm33 125c57 0 124 11 124-50 0-59-68-47-124-48v98" id="am"/><g id="m"><use transform="matrix(0.03703703703703704,0,0,0.03703703703703704,0,0)" xlink:href="#am"/><use transform="matrix(0.03703703703703704,0,0,0.03703703703703704,8.88888888888889,0)" xlink:href="#I"/><use transform="matrix(0.03703703703703704,0,0,0.03703703703703704,16.296296296296298,0)" xlink:href="#F"/><use transform="matrix(0.03703703703703704,0,0,0.03703703703703704,20.703703703703706,0)" xlink:href="#M"/><use transform="matrix(0.03703703703703704,0,0,0.03703703703703704,27.370370370370374,0)" xlink:href="#J"/><use transform="matrix(0.03703703703703704,0,0,0.03703703703703704,30.2962962962963,0)" xlink:href="#M"/><use transform="matrix(0.03703703703703704,0,0,0.03703703703703704,36.96296296296297,0)" xlink:href="#E"/></g><path fill="#333" d="M30-248c118-7 216 8 213 122C240-48 200 0 122 0H30v-248zM63-27c89 8 146-16 146-99s-60-101-146-95v194" id="an"/><g id="n"><use transform="matrix(0.049382716049382706,0,0,0.049382716049382706,0,0)" xlink:href="#an"/><use transform="matrix(0.049382716049382706,0,0,0.049382716049382706,12.790123456790122,0)" xlink:href="#G"/><use transform="matrix(0.049382716049382706,0,0,0.049382716049382706,22.666666666666664,0)" xlink:href="#E"/><use transform="matrix(0.049382716049382706,0,0,0.049382716049382706,27.60493827160494,0)" xlink:href="#G"/></g><path fill="#333" d="M206 0h-36l-40-164L89 0H53L-1-190h32L70-26l43-164h34l41 164 42-164h31" id="ao"/><path fill="#333" d="M106-169C34-169 62-67 57 0H25v-261h32l-1 103c12-21 28-36 61-36 89 0 53 116 60 194h-32v-121c2-32-8-49-39-48" id="ap"/><g id="o"><use transform="matrix(0.049382716049382706,0,0,0.049382716049382706,0,0)" xlink:href="#ao"/><use transform="matrix(0.049382716049382706,0,0,0.049382716049382706,12.790123456790122,0)" xlink:href="#G"/><use transform="matrix(0.049382716049382706,0,0,0.049382716049382706,22.666666666666664,0)" xlink:href="#F"/><use transform="matrix(0.049382716049382706,0,0,0.049382716049382706,28.543209876543205,0)" xlink:href="#I"/><use transform="matrix(0.049382716049382706,0,0,0.049382716049382706,38.419753086419746,0)" xlink:href="#ap"/><use transform="matrix(0.049382716049382706,0,0,0.049382716049382706,48.29629629629629,0)" xlink:href="#A"/><use transform="matrix(0.049382716049382706,0,0,0.049382716049382706,58.17283950617284,0)" xlink:href="#B"/><use transform="matrix(0.049382716049382706,0,0,0.049382716049382706,68.04938271604938,0)" xlink:href="#M"/><use transform="matrix(0.049382716049382706,0,0,0.049382716049382706,76.93827160493827,0)" xlink:href="#I"/></g><g id="p"><use transform="matrix(0.049382716049382706,0,0,0.049382716049382706,0,0)" xlink:href="#N"/><use transform="matrix(0.049382716049382706,0,0,0.049382716049382706,5.876543209876542,0)" xlink:href="#O"/><use transform="matrix(0.049382716049382706,0,0,0.049382716049382706,17.728395061728392,0)" xlink:href="#J"/><use transform="matrix(0.049382716049382706,0,0,0.049382716049382706,21.629629629629626,0)" xlink:href="#H"/><use transform="matrix(0.049382716049382706,0,0,0.049382716049382706,31.506172839506167,0)" xlink:href="#P"/><use transform="matrix(0.049382716049382706,0,0,0.049382716049382706,45.33333333333333,0)" xlink:href="#B"/><use transform="matrix(0.049382716049382706,0,0,0.049382716049382706,55.20987654320988,0)" xlink:href="#I"/><use transform="matrix(0.049382716049382706,0,0,0.049382716049382706,65.08641975308642,0)" xlink:href="#F"/><use transform="matrix(0.049382716049382706,0,0,0.049382716049382706,70.96296296296296,0)" xlink:href="#Q"/><use transform="matrix(0.049382716049382706,0,0,0.049382716049382706,79.85185185185185,0)" xlink:href="#R"/></g><g id="r"><use transform="matrix(0.03703703703703704,0,0,0.03703703703703704,0,0)" xlink:href="#O"/><use transform="matrix(0.03703703703703704,0,0,0.03703703703703704,8.88888888888889,0)" xlink:href="#G"/><use transform="matrix(0.03703703703703704,0,0,0.03703703703703704,16.296296296296298,0)" xlink:href="#E"/><use transform="matrix(0.03703703703703704,0,0,0.03703703703703704,20,0)" xlink:href="#S"/><use transform="matrix(0.03703703703703704,0,0,0.03703703703703704,26.666666666666664,0)" xlink:href="#ap"/></g><path fill="#333" d="M30 0v-248h33v221h125V0H30" id="aq"/><g id="s"><use transform="matrix(0.03703703703703704,0,0,0.03703703703703704,0,0)" xlink:href="#aq"/><use transform="matrix(0.03703703703703704,0,0,0.03703703703703704,7.407407407407408,0)" xlink:href="#A"/><use transform="matrix(0.03703703703703704,0,0,0.03703703703703704,14.814814814814817,0)" xlink:href="#G"/><use transform="matrix(0.03703703703703704,0,0,0.03703703703703704,22.222222222222225,0)" xlink:href="#C"/></g><path fill="#333" d="M24-231v-30h32v30H24zM-9 49c24 4 33-6 33-30v-209h32V24c2 40-23 58-65 49V49" id="ar"/><g id="t"><use transform="matrix(0.03703703703703704,0,0,0.03703703703703704,0,0)" xlink:href="#ar"/><use transform="matrix(0.03703703703703704,0,0,0.03703703703703704,2.9259259259259265,0)" xlink:href="#A"/><use transform="matrix(0.03703703703703704,0,0,0.03703703703703704,10.333333333333334,0)" xlink:href="#L"/></g><path fill="#333" d="M127-220V0H93v-220H8v-28h204v28h-85" id="as"/><path fill="#333" d="M101-234c-31-9-42 10-38 44h38v23H63V0H32v-167H5v-23h27c-7-52 17-82 69-68v24" id="at"/><g id="u"><use transform="matrix(0.03703703703703704,0,0,0.03703703703703704,0,0)" xlink:href="#as"/><use transform="matrix(0.03703703703703704,0,0,0.03703703703703704,7.629629629629631,0)" xlink:href="#F"/><use transform="matrix(0.03703703703703704,0,0,0.03703703703703704,12.037037037037038,0)" xlink:href="#G"/><use transform="matrix(0.03703703703703704,0,0,0.03703703703703704,19.444444444444446,0)" xlink:href="#K"/><use transform="matrix(0.03703703703703704,0,0,0.03703703703703704,26.851851851851855,0)" xlink:href="#M"/><use transform="matrix(0.03703703703703704,0,0,0.03703703703703704,33.51851851851852,0)" xlink:href="#at"/><use transform="matrix(0.03703703703703704,0,0,0.03703703703703704,37.22222222222222,0)" xlink:href="#A"/><use transform="matrix(0.03703703703703704,0,0,0.03703703703703704,44.62962962962963,0)" xlink:href="#F"/><use transform="matrix(0.03703703703703704,0,0,0.03703703703703704,49.03703703703704,0)" xlink:href="#T"/></g><g id="v"><use transform="matrix(0.03703703703703704,0,0,0.03703703703703704,0,0)" xlink:href="#B"/><use transform="matrix(0.03703703703703704,0,0,0.03703703703703704,7.407407407407408,0)" xlink:href="#M"/><use transform="matrix(0.03703703703703704,0,0,0.03703703703703704,14.074074074074076,0)" xlink:href="#J"/><use transform="matrix(0.03703703703703704,0,0,0.03703703703703704,17.000000000000004,0)" xlink:href="#K"/><use transform="matrix(0.03703703703703704,0,0,0.03703703703703704,24.407407407407412,0)" xlink:href="#H"/></g><g id="w"><use transform="matrix(0.03703703703703704,0,0,0.03703703703703704,0,0)" xlink:href="#D"/><use transform="matrix(0.03703703703703704,0,0,0.03703703703703704,8.88888888888889,0)" xlink:href="#P"/><use transform="matrix(0.03703703703703704,0,0,0.03703703703703704,19.259259259259256,0)" xlink:href="#aq"/></g><g id="x"><use transform="matrix(0.03703703703703704,0,0,0.03703703703703704,0,0)" xlink:href="#D"/><use transform="matrix(0.03703703703703704,0,0,0.03703703703703704,8.88888888888889,0)" xlink:href="#E"/><use transform="matrix(0.03703703703703704,0,0,0.03703703703703704,12.592592592592593,0)" xlink:href="#F"/><use transform="matrix(0.03703703703703704,0,0,0.03703703703703704,17,0)" xlink:href="#I"/><use transform="matrix(0.03703703703703704,0,0,0.03703703703703704,24.407407407407405,0)" xlink:href="#G"/><use transform="matrix(0.03703703703703704,0,0,0.03703703703703704,31.814814814814813,0)" xlink:href="#T"/></g></defs></g></svg>